<svg width="118" height="120" viewBox="0 0 118 120" fill="none" xmlns="http://www.w3.org/2000/svg">
<path d="M117.276 20.4119V89.6996C117.276 91.7918 115.889 93.6289 113.879 94.2067L24.9613 119.699C24.7471 119.762 24.5304 119.81 24.3113 119.848L31.3368 96.0775C31.8545 94.3247 33.3617 93.0342 35.1795 92.803L99.6013 84.4605C101.046 84.2775 102.125 83.0448 102.125 81.5882V29.8138C102.125 28.3451 101.015 27.1148 99.5556 26.9655L25.9991 19.3718C24.3041 19.1984 22.8306 20.5298 22.8306 22.2296V120C22.1083 120 21.3908 119.899 20.6998 119.699L3.91597 114.884C1.9152 114.308 0.533203 112.476 0.533203 110.393V13.0781C0.533203 11.2363 1.60461 9.56053 3.27553 8.78526L20.6902 0.697923C22.0842 0.0478538 23.6444 -0.15439 25.1564 0.117676L113.407 15.7964C115.646 16.1936 117.278 18.1414 117.278 20.4143L117.276 20.4119Z" fill="white"/>
<path d="M49.7777 44.3564C49.3154 44.1421 48.8267 44.0386 48.35 44.0386C47.0739 44.0386 45.8508 44.7609 45.2754 45.9984L40.436 56.373L35.5966 45.9984C35.0211 44.7609 33.798 44.0386 32.522 44.0386C32.0404 44.0386 31.5517 44.1397 31.0894 44.3564C29.3944 45.1509 28.6625 47.1637 29.4522 48.8635L36.692 64.393L32.6279 73.1111C31.8334 74.8061 32.5701 76.8237 34.2651 77.6183C35.9649 78.408 37.9826 77.6712 38.7723 75.9762L40.4336 72.4153L44.1751 64.3954L51.4149 48.8659C52.2046 47.1661 51.4679 45.1533 49.7729 44.3588L49.7777 44.3564Z" fill="white"/>
<path d="M72.3957 47.6813C69.976 45.2448 66.7882 44.0361 63.6053 44.0361C60.4223 44.0361 57.2418 45.2496 54.8149 47.6813C52.1015 50.3948 50.9073 54.0544 51.2275 57.6033C51.4899 60.572 52.8888 63.3961 55.0725 65.4836C57.2514 67.5638 60.2129 68.9049 63.6053 68.9049C67.4792 68.9049 70.3877 67.7733 73.1613 65.2645C73.626 64.8432 74.9068 63.6827 74.9068 62.1225C74.9068 60.9596 74.1316 59.6787 72.646 59.3537C71.2183 59.0407 69.7833 60.1434 68.801 60.9933C67.4238 62.1827 64.7802 62.9074 62.7241 62.6233C60.0877 62.2621 57.9593 59.8593 57.9593 58.2317L73.065 58.2269C74.7889 58.2269 76.1685 56.6956 75.9494 54.9862C75.5304 51.7069 74.1845 49.4823 72.3957 47.6813V47.6813ZM67.2745 53.0793C64.3011 53.0745 61.8862 53.0697 59.9264 53.0697C59.2354 53.0697 58.8309 52.2992 59.2041 51.719C60.3405 49.9903 62.0596 49.1211 63.6053 49.1211C65.151 49.1211 66.8652 49.9879 68.0065 51.7238C68.3869 52.304 67.9728 53.0793 67.2745 53.0793V53.0793Z" fill="white"/>
<path d="M92.4257 55.9613C90.8486 55.0271 88.7179 53.9966 86.2091 53.0793C85.1738 52.7013 82.8697 51.4493 84.4009 50.1444C84.7597 49.8386 85.2412 49.7014 85.7131 49.6797C87.0494 49.6147 88.2411 50.1059 89.392 50.727C90.319 51.2302 91.3254 51.9477 92.4257 51.9477C93.9305 51.9477 94.9682 50.8161 95.1945 49.6869C95.3847 48.7359 95.05 47.8619 94.6865 47.4261C93.8534 46.4318 90.7307 44.0361 86.2115 44.0361C81.1265 44.0361 77.1707 47.4261 77.1707 51.3819C77.1707 54.2061 78.5383 56.0094 80.0647 57.0447C82.1883 58.4845 84.5165 59.2911 86.2115 59.8569C87.1938 60.1843 89.3824 60.5768 89.0646 62.0767C88.8214 63.23 87.1264 63.2469 86.2115 63.2469C84.7163 63.2469 83.1538 62.332 81.9307 61.5543C81.3095 61.1594 80.7918 60.6562 80.0503 60.4949C79.2509 60.3192 78.3914 60.4925 77.7365 60.9861C76.3304 62.0503 76.2582 64.0318 77.3898 65.2236C78.5214 66.4154 81.5599 68.8928 86.2139 68.8928C91.8647 68.8928 95.8205 65.5077 95.8205 61.5519C95.8205 59.2742 94.5685 57.2253 92.4305 55.9589L92.4257 55.9613Z" fill="white"/>
</svg>
