<svg width="21" height="15" viewBox="0 0 21 15" fill="none" xmlns="http://www.w3.org/2000/svg">
<path fill-rule="evenodd" clip-rule="evenodd" d="M10.4024 0.789062C14.299 0.789062 19.1843 3.42707 20.2462 7.35415L20.2962 7.53906L20.2462 7.72398C19.1843 11.6511 14.299 14.2891 10.4024 14.2891C6.50586 14.2891 1.62047 11.6511 0.558597 7.72398L0.508789 7.53906L0.558597 7.35415C1.62047 3.42707 6.50586 0.789062 10.4024 0.789062ZM2.02842 7.53908C3.01328 10.6779 7.18167 12.8492 10.4025 12.8492C13.6232 12.8492 17.7916 10.6781 18.7765 7.53908C17.7916 4.40001 13.6232 2.22893 10.4025 2.22893C7.18167 2.22893 3.01328 4.40001 2.02842 7.53908ZM10.4549 4.04234C8.43553 4.04234 6.79249 5.65723 6.79249 7.64196C6.79249 9.62669 8.43553 11.2416 10.4549 11.2416C12.4742 11.2416 14.1172 9.62669 14.1172 7.64196C14.1172 5.65723 12.4744 4.04234 10.4549 4.04234ZM8.25733 7.64197C8.25733 8.83293 9.24303 9.80174 10.4548 9.80174C11.6665 9.80174 12.6522 8.83293 12.6522 7.64197C12.6522 6.45101 11.6665 5.48219 10.4548 5.48219C9.24303 5.48219 8.25733 6.45101 8.25733 7.64197Z" fill="#C4C4C4"/>
</svg>
