<svg width="118" height="46" viewBox="0 0 118 46" fill="none" xmlns="http://www.w3.org/2000/svg">
<path d="M11.519 36.6044C9.29984 36.6044 7.16106 36.3472 5.10269 35.8326C3.07648 35.2858 1.46838 34.6104 0.278381 33.8064L2.78702 28.4031C3.97702 29.1429 5.37607 29.7539 6.98417 30.2364C8.62444 30.6866 10.2325 30.9118 11.8085 30.9118C13.5452 30.9118 14.7674 30.7027 15.475 30.2846C16.2147 29.8665 16.5846 29.2876 16.5846 28.5479C16.5846 27.9368 16.2951 27.4865 15.7162 27.197C15.1694 26.8754 14.4297 26.6342 13.497 26.4734C12.5643 26.3126 11.5351 26.1518 10.4094 25.991C9.31592 25.8302 8.20633 25.6211 7.08066 25.3638C5.95499 25.0743 4.9258 24.6562 3.9931 24.1095C3.0604 23.5627 2.30459 22.823 1.72567 21.8903C1.17892 20.9576 0.905542 19.7515 0.905542 18.2721C0.905542 16.6318 1.37189 15.1845 2.30459 13.9302C3.26945 12.6759 4.65242 11.6949 6.4535 10.9874C8.25457 10.2476 10.4094 9.87777 12.9181 9.87777C14.687 9.87777 16.4881 10.0707 18.3213 10.4567C20.1545 10.8426 21.6822 11.4055 22.9044 12.1452L20.3958 17.5002C19.1414 16.7605 17.871 16.2619 16.5846 16.0046C15.3302 15.7152 14.1081 15.5705 12.9181 15.5705C11.2456 15.5705 10.0235 15.7956 9.2516 16.2459C8.47971 16.6961 8.09376 17.275 8.09376 17.9826C8.09376 18.6259 8.36714 19.1083 8.9139 19.4299C9.49281 19.7515 10.2486 20.0088 11.1813 20.2018C12.114 20.3948 13.1271 20.5717 14.2206 20.7325C15.3463 20.8611 16.472 21.0702 17.5977 21.3596C18.7233 21.6491 19.7364 22.0672 20.637 22.6139C21.5697 23.1285 22.3255 23.8522 22.9044 24.7849C23.4833 25.6854 23.7728 26.8754 23.7728 28.3549C23.7728 29.963 23.2903 31.3942 22.3255 32.6485C21.3606 33.8707 19.9616 34.8355 18.1283 35.5431C16.3273 36.2507 14.1242 36.6044 11.519 36.6044Z" fill="white"/>
<path d="M42.6099 9.87777C44.6683 9.87777 46.5015 10.2959 48.1096 11.1321C49.7499 11.9361 51.0364 13.1905 51.9691 14.8951C52.9018 16.5675 53.3681 18.7223 53.3681 21.3596V36.2185H45.8422V22.5175C45.8422 20.4269 45.3759 18.8831 44.4432 17.8861C43.5426 16.8891 42.2561 16.3906 40.5837 16.3906C39.3937 16.3906 38.3163 16.6479 37.3514 17.1625C36.4187 17.6449 35.679 18.4007 35.1322 19.4299C34.6177 20.4591 34.3604 21.7777 34.3604 23.3858V36.2185H26.8344V0.422119H34.3604V17.4519L32.6718 15.281C33.6045 13.5442 34.9393 12.2095 36.676 11.2768C38.4128 10.3441 40.3907 9.87777 42.6099 9.87777Z" fill="white"/>
<path d="M71.147 36.6044C68.381 36.6044 65.9206 36.0255 63.7658 34.8677C61.6431 33.7099 59.9546 32.1339 58.7002 30.1399C57.4781 28.1137 56.867 25.8141 56.867 23.2411C56.867 20.636 57.4781 18.3364 58.7002 16.3423C59.9546 14.3161 61.6431 12.7402 63.7658 11.6145C65.9206 10.4567 68.381 9.87777 71.147 9.87777C73.8807 9.87777 76.325 10.4567 78.4799 11.6145C80.6348 12.7402 82.3233 14.3001 83.5454 16.2941C84.7676 18.2882 85.3787 20.6038 85.3787 23.2411C85.3787 25.8141 84.7676 28.1137 83.5454 30.1399C82.3233 32.1339 80.6348 33.7099 78.4799 34.8677C76.325 36.0255 73.8807 36.6044 71.147 36.6044ZM71.147 30.4293C72.4013 30.4293 73.5269 30.1399 74.524 29.561C75.521 28.982 76.309 28.1619 76.8879 27.1006C77.4668 26.007 77.7563 24.7206 77.7563 23.2411C77.7563 21.7295 77.4668 20.443 76.8879 19.3817C76.309 18.3203 75.521 17.5002 74.524 16.9213C73.5269 16.3423 72.4013 16.0529 71.147 16.0529C69.8926 16.0529 68.767 16.3423 67.7699 16.9213C66.7729 17.5002 65.9689 18.3203 65.3578 19.3817C64.7789 20.443 64.4894 21.7295 64.4894 23.2411C64.4894 24.7206 64.7789 26.007 65.3578 27.1006C65.9689 28.1619 66.7729 28.982 67.7699 29.561C68.767 30.1399 69.8926 30.4293 71.147 30.4293Z" fill="white"/>
<path d="M104.169 36.6044C101.982 36.6044 100.068 36.122 98.4278 35.1572C96.7875 34.1923 95.501 32.7289 94.5683 30.767C93.6678 28.773 93.2175 26.2643 93.2175 23.2411C93.2175 20.1857 93.6517 17.6771 94.5201 15.7152C95.3885 13.7533 96.6428 12.2899 98.2831 11.3251C99.9233 10.3602 101.885 9.87777 104.169 9.87777C106.613 9.87777 108.8 10.4406 110.73 11.5663C112.692 12.6598 114.235 14.2036 115.361 16.1976C116.519 18.1917 117.098 20.5395 117.098 23.2411C117.098 25.9749 116.519 28.3388 115.361 30.3328C114.235 32.3269 112.692 33.8707 110.73 34.9642C108.8 36.0577 106.613 36.6044 104.169 36.6044ZM88.8274 45.5777V10.2637H96.0156V15.5705L95.8709 23.2894L96.3533 30.96V45.5777H88.8274ZM102.866 30.4293C104.12 30.4293 105.23 30.1399 106.195 29.561C107.192 28.982 107.98 28.1619 108.559 27.1006C109.17 26.007 109.475 24.7206 109.475 23.2411C109.475 21.7295 109.17 20.443 108.559 19.3817C107.98 18.3203 107.192 17.5002 106.195 16.9213C105.23 16.3423 104.12 16.0529 102.866 16.0529C101.612 16.0529 100.486 16.3423 99.4891 16.9213C98.4921 17.5002 97.7041 18.3203 97.1252 19.3817C96.5463 20.443 96.2568 21.7295 96.2568 23.2411C96.2568 24.7206 96.5463 26.007 97.1252 27.1006C97.7041 28.1619 98.4921 28.982 99.4891 29.561C100.486 30.1399 101.612 30.4293 102.866 30.4293Z" fill="white"/>
</svg>
