<svg width="16" height="19" viewBox="0 0 16 19" fill="none" xmlns="http://www.w3.org/2000/svg">
<path d="M14.3549 17.7642C14.583 17.7642 14.765 17.5245 14.7515 17.2397C14.5945 14.0459 13.0143 11.332 10.7933 10.0752C9.93536 9.5816 8.97079 9.32397 7.99069 9.32668C7.01059 9.32939 6.04735 9.59236 5.19197 10.0907C2.98515 11.3546 1.41785 14.0593 1.26152 17.2397C1.24731 17.5217 1.42935 17.7642 1.65741 17.7642H14.3549Z" stroke="#2F3BF5" stroke-width="1.17" stroke-miterlimit="10"/>
<path d="M8.00648 10.1704C10.3349 10.1704 12.2225 8.09273 12.2225 5.52979C12.2225 2.96684 10.3349 0.88916 8.00648 0.88916C5.678 0.88916 3.79041 2.96684 3.79041 5.52979C3.79041 8.09273 5.678 10.1704 8.00648 10.1704Z" fill="white" stroke="#FF0084" stroke-width="1.17" stroke-miterlimit="10"/>
</svg>
