<svg width="353" height="120" viewBox="0 0 353 120" fill="none" xmlns="http://www.w3.org/2000/svg">
<path d="M117.276 20.4119V89.6996C117.276 91.7918 115.889 93.6289 113.879 94.2067L24.9613 119.699C24.7471 119.762 24.5304 119.81 24.3113 119.848L31.3368 96.0775C31.8545 94.3247 33.3617 93.0342 35.1795 92.803L99.6013 84.4605C101.046 84.2775 102.125 83.0448 102.125 81.5882V29.8138C102.125 28.3451 101.015 27.1148 99.5556 26.9655L25.9991 19.3718C24.3041 19.1984 22.8306 20.5298 22.8306 22.2296V120C22.1083 120 21.3908 119.899 20.6998 119.699L3.91597 114.884C1.9152 114.308 0.533203 112.476 0.533203 110.393V13.0781C0.533203 11.2363 1.60461 9.56053 3.27553 8.78526L20.6902 0.697923C22.0842 0.0478538 23.6444 -0.15439 25.1564 0.117676L113.407 15.7964C115.646 16.1936 117.278 18.1414 117.278 20.4143L117.276 20.4119Z" fill="white"/>
<path d="M49.7782 44.3569C49.3159 44.1426 48.8272 44.0391 48.3504 44.0391C47.0744 44.0391 45.8513 44.7614 45.2759 45.9989L40.4364 56.3735L35.597 45.9989C35.0216 44.7614 33.7985 44.0391 32.5225 44.0391C32.0409 44.0391 31.5522 44.1402 31.0899 44.3569C29.3949 45.1514 28.663 47.1642 29.4527 48.864L36.6925 64.3935L32.6284 73.1116C31.8339 74.8066 32.5706 76.8242 34.2656 77.6187C35.9654 78.4085 37.983 77.6717 38.7728 75.9767L40.434 72.4158L44.1755 64.3959L51.4154 48.8664C52.2051 47.1666 51.4684 45.1538 49.7734 44.3593L49.7782 44.3569Z" fill="white"/>
<path d="M72.3967 47.6823C69.977 45.2458 66.7892 44.0371 63.6063 44.0371C60.4234 44.0371 57.2429 45.2506 54.8159 47.6823C52.1025 50.3957 50.9083 54.0554 51.2285 57.6043C51.4909 60.5729 52.8898 63.3971 55.0735 65.4846C57.2525 67.5648 60.2139 68.9059 63.6063 68.9059C67.4802 68.9059 70.3887 67.7743 73.1623 65.2655C73.627 64.8441 74.9079 63.6836 74.9079 62.1235C74.9079 60.9606 74.1326 59.6797 72.6471 59.3547C71.2193 59.0417 69.7844 60.1444 68.802 60.9943C67.4249 62.1837 64.7812 62.9084 62.7251 62.6243C60.0887 62.2631 57.9603 59.8603 57.9603 58.2327L73.066 58.2279C74.7899 58.2279 76.1695 56.6966 75.9504 54.9872C75.5315 51.7079 74.1856 49.4832 72.3967 47.6823ZM67.2756 53.0803C64.3021 53.0755 61.8872 53.0707 59.9274 53.0707C59.2364 53.0707 58.8319 52.3002 59.2051 51.72C60.3415 49.9913 62.0606 49.1221 63.6063 49.1221C65.152 49.1221 66.8663 49.9889 68.0075 51.7248C68.3879 52.305 67.9738 53.0803 67.2756 53.0803Z" fill="white"/>
<path d="M92.4261 55.9623C90.8491 55.0281 88.7183 53.9976 86.2095 53.0803C85.1742 52.7023 82.8701 51.4503 84.4014 50.1454C84.7601 49.8396 85.2416 49.7023 85.7135 49.6807C87.0498 49.6157 88.2416 50.1068 89.3924 50.728C90.3194 51.2312 91.3258 51.9487 92.4261 51.9487C93.9309 51.9487 94.9686 50.8171 95.1949 49.6879C95.3851 48.7369 95.0504 47.8629 94.6869 47.4271C93.8538 46.4327 90.7311 44.0371 86.2119 44.0371C81.1269 44.0371 77.1711 47.4271 77.1711 51.3829C77.1711 54.2071 78.5387 56.0104 80.0651 57.0457C82.1887 58.4855 84.5169 59.2921 86.2119 59.8579C87.1942 60.1853 89.3828 60.5778 89.065 62.0777C88.8218 63.231 87.1268 63.2479 86.2119 63.2479C84.7168 63.2479 83.1542 62.3329 81.9311 61.5553C81.3099 61.1604 80.7923 60.6572 80.0507 60.4959C79.2514 60.3201 78.3918 60.4935 77.7369 60.9871C76.3309 62.0512 76.2586 64.0327 77.3902 65.2245C78.5218 66.4163 81.5603 68.8938 86.2143 68.8938C91.8651 68.8938 95.8209 65.5086 95.8209 61.5529C95.8209 59.2752 94.5689 57.2263 92.4309 55.9599L92.4261 55.9623Z" fill="white"/>
<path d="M153.52 73.6042C151.301 73.6042 149.162 73.3469 147.104 72.8323C145.077 72.2856 143.469 71.6102 142.279 70.8061L144.788 65.4029C145.978 66.1426 147.377 66.7537 148.985 67.2361C150.625 67.6864 152.233 67.9115 153.809 67.9115C155.546 67.9115 156.768 67.7025 157.476 67.2844C158.216 66.8663 158.585 66.2873 158.585 65.5476C158.585 64.9365 158.296 64.4863 157.717 64.1968C157.17 63.8752 156.431 63.634 155.498 63.4732C154.565 63.3123 153.536 63.1515 152.41 62.9907C151.317 62.8299 150.207 62.6209 149.082 62.3636C147.956 62.0741 146.927 61.656 145.994 61.1092C145.061 60.5625 144.306 59.8228 143.727 58.8901C143.18 57.9574 142.906 56.7513 142.906 55.2718C142.906 53.6316 143.373 52.1843 144.306 50.9299C145.27 49.6756 146.653 48.6947 148.454 47.9871C150.255 47.2474 152.41 46.8775 154.919 46.8775C156.688 46.8775 158.489 47.0705 160.322 47.4564C162.155 47.8424 163.683 48.4052 164.905 49.145L162.397 54.4999C161.142 53.7602 159.872 53.2617 158.585 53.0044C157.331 52.7149 156.109 52.5702 154.919 52.5702C153.247 52.5702 152.024 52.7953 151.253 53.2456C150.481 53.6959 150.095 54.2748 150.095 54.9824C150.095 55.6256 150.368 56.108 150.915 56.4297C151.494 56.7513 152.25 57.0086 153.182 57.2015C154.115 57.3945 155.128 57.5714 156.222 57.7322C157.347 57.8609 158.473 58.0699 159.599 58.3594C160.724 58.6488 161.737 59.0669 162.638 59.6137C163.571 60.1283 164.326 60.8519 164.905 61.7846C165.484 62.6852 165.774 63.8752 165.774 65.3546C165.774 66.9627 165.291 68.3939 164.326 69.6483C163.362 70.8704 161.962 71.8353 160.129 72.5429C158.328 73.2504 156.125 73.6042 153.52 73.6042Z" fill="white"/>
<path d="M184.611 46.8775C186.669 46.8775 188.502 47.2956 190.111 48.1318C191.751 48.9359 193.037 50.1902 193.97 51.8948C194.903 53.5672 195.369 55.7221 195.369 58.3594V73.2183H187.843V59.5172C187.843 57.4267 187.377 55.8829 186.444 54.8859C185.544 53.8889 184.257 53.3903 182.585 53.3903C181.395 53.3903 180.317 53.6476 179.352 54.1622C178.42 54.6447 177.68 55.4005 177.133 56.4297C176.619 57.4588 176.361 58.7775 176.361 60.3856V73.2183H168.835V37.4219H176.361V54.4517L174.673 52.2808C175.605 50.544 176.94 49.2093 178.677 48.2766C180.414 47.3439 182.392 46.8775 184.611 46.8775Z" fill="white"/>
<path d="M213.148 73.6042C210.382 73.6042 207.922 73.0253 205.767 71.8675C203.644 70.7096 201.955 69.1337 200.701 67.1396C199.479 65.1134 198.868 62.8138 198.868 60.2409C198.868 57.6357 199.479 55.3361 200.701 53.3421C201.955 51.3159 203.644 49.7399 205.767 48.6143C207.922 47.4564 210.382 46.8775 213.148 46.8775C215.882 46.8775 218.326 47.4564 220.481 48.6143C222.636 49.7399 224.324 51.2998 225.546 53.2939C226.769 55.2879 227.38 57.6036 227.38 60.2409C227.38 62.8138 226.769 65.1134 225.546 67.1396C224.324 69.1337 222.636 70.7096 220.481 71.8675C218.326 73.0253 215.882 73.6042 213.148 73.6042ZM213.148 67.4291C214.402 67.4291 215.528 67.1396 216.525 66.5607C217.522 65.9818 218.31 65.1617 218.889 64.1003C219.468 63.0068 219.757 61.7203 219.757 60.2409C219.757 58.7292 219.468 57.4428 218.889 56.3814C218.31 55.3201 217.522 54.4999 216.525 53.921C215.528 53.3421 214.402 53.0526 213.148 53.0526C211.894 53.0526 210.768 53.3421 209.771 53.921C208.774 54.4999 207.97 55.3201 207.359 56.3814C206.78 57.4428 206.49 58.7292 206.49 60.2409C206.49 61.7203 206.78 63.0068 207.359 64.1003C207.97 65.1617 208.774 65.9818 209.771 66.5607C210.768 67.1396 211.894 67.4291 213.148 67.4291Z" fill="white"/>
<path d="M246.17 73.6042C243.983 73.6042 242.069 73.1218 240.429 72.1569C238.788 71.1921 237.502 69.7287 236.569 67.7668C235.669 65.7727 235.218 63.2641 235.218 60.2409C235.218 57.1855 235.653 54.6768 236.521 52.7149C237.389 50.7531 238.644 49.2897 240.284 48.3248C241.924 47.36 243.886 46.8775 246.17 46.8775C248.614 46.8775 250.801 47.4404 252.731 48.566C254.693 49.6595 256.236 51.2033 257.362 53.1974C258.52 55.1914 259.099 57.5393 259.099 60.2409C259.099 62.9746 258.52 65.3386 257.362 67.3326C256.236 69.3266 254.693 70.8704 252.731 71.9639C250.801 73.0574 248.614 73.6042 246.17 73.6042ZM230.828 82.5774V47.2635H238.017V52.5702L237.872 60.2891L238.354 67.9598V82.5774H230.828ZM244.867 67.4291C246.121 67.4291 247.231 67.1396 248.196 66.5607C249.193 65.9818 249.981 65.1617 250.56 64.1003C251.171 63.0068 251.476 61.7203 251.476 60.2409C251.476 58.7292 251.171 57.4428 250.56 56.3814C249.981 55.3201 249.193 54.4999 248.196 53.921C247.231 53.3421 246.121 53.0526 244.867 53.0526C243.613 53.0526 242.487 53.3421 241.49 53.921C240.493 54.4999 239.705 55.3201 239.126 56.3814C238.547 57.4428 238.258 58.7292 238.258 60.2409C238.258 61.7203 238.547 63.0068 239.126 64.1003C239.705 65.1617 240.493 65.9818 241.49 66.5607C242.487 67.1396 243.613 67.4291 244.867 67.4291Z" fill="white"/>
<path d="M274.01 66L279.68 53.4H281.984L287.672 66H285.224L280.346 54.642H281.282L276.422 66H274.01ZM276.62 63.084L277.25 61.248H284.054L284.684 63.084H276.62ZM292.274 66V53.4H297.782C299.15 53.4 300.35 53.664 301.382 54.192C302.414 54.72 303.218 55.452 303.794 56.388C304.37 57.324 304.658 58.428 304.658 59.7C304.658 60.96 304.37 62.064 303.794 63.012C303.218 63.948 302.414 64.68 301.382 65.208C300.35 65.736 299.15 66 297.782 66H292.274ZM294.614 64.02H297.674C298.622 64.02 299.438 63.84 300.122 63.48C300.818 63.12 301.352 62.616 301.724 61.968C302.108 61.32 302.3 60.564 302.3 59.7C302.3 58.824 302.108 58.068 301.724 57.432C301.352 56.784 300.818 56.28 300.122 55.92C299.438 55.56 298.622 55.38 297.674 55.38H294.614V64.02ZM310.145 66V53.4H312.071L317.579 62.598H316.571L321.989 53.4H323.915L323.933 66H321.719L321.701 56.874H322.169L317.561 64.56H316.517L311.837 56.874H312.377V66H310.145ZM330.337 66V53.4H332.677V66H330.337ZM339.085 66V53.4H341.011L348.913 63.102H347.959V53.4H350.281V66H348.355L340.453 56.298H341.407V66H339.085Z" fill="white"/>
</svg>
