<svg width="176" height="60" viewBox="0 0 176 60" fill="none" xmlns="http://www.w3.org/2000/svg">
<path d="M58.3714 10.2059V44.8498C58.3714 45.8959 57.678 46.8144 56.6728 47.1034L12.2141 59.8495C12.1069 59.8808 11.9986 59.9049 11.889 59.9242L15.4018 48.0387C15.6606 47.1623 16.4142 46.5171 17.3231 46.4015L49.534 42.2302C50.2563 42.1388 50.7957 41.5224 50.7957 40.7941V14.9069C50.7957 14.1726 50.2407 13.5574 49.5112 13.4828L12.7329 9.68588C11.8854 9.5992 11.1487 10.2649 11.1487 11.1148V60C10.7875 60 10.4288 59.9494 10.0833 59.8495L1.69138 57.4419C0.690999 57.1541 0 56.238 0 55.1967V6.53906C0 5.61813 0.535705 4.78026 1.37116 4.39263L10.0785 0.348961C10.7755 0.0239269 11.5556 -0.0771949 12.3116 0.058838L56.4368 7.89819C57.5564 8.09682 58.3726 9.07072 58.3726 10.2071L58.3714 10.2059Z" fill="#FF0084"/>
<path d="M24.6225 22.1784C24.3914 22.0713 24.147 22.0195 23.9086 22.0195C23.2706 22.0195 22.659 22.3807 22.3713 22.9995L19.9516 28.1868L17.5319 22.9995C17.2442 22.3807 16.6327 22.0195 15.9946 22.0195C15.7539 22.0195 15.5095 22.0701 15.2783 22.1784C14.4309 22.5757 14.0649 23.5821 14.4597 24.432L18.0797 32.1967L16.0476 36.5558C15.6503 37.4033 16.0187 38.4121 16.8662 38.8094C17.7161 39.2042 18.7249 38.8359 19.1198 37.9884L19.9504 36.2079L21.8212 32.1979L25.4411 24.4332C25.836 23.5833 25.4676 22.5769 24.6201 22.1796L24.6225 22.1784Z" fill="#FF0084"/>
<path d="M35.9317 23.8402C34.7219 22.6219 33.128 22.0176 31.5366 22.0176C29.9451 22.0176 28.3548 22.6243 27.1414 23.8402C25.7846 25.1969 25.1875 27.0267 25.3477 28.8012C25.4789 30.2855 26.1783 31.6976 27.2702 32.7413C28.3596 33.7814 29.8404 34.4519 31.5366 34.4519C33.4735 34.4519 34.9277 33.8861 36.3146 32.6318C36.5469 32.4211 37.1873 31.8408 37.1873 31.0608C37.1873 30.4793 36.7997 29.8389 36.0569 29.6764C35.3431 29.5199 34.6256 30.0712 34.1344 30.4962C33.4458 31.0909 32.124 31.4532 31.096 31.3112C29.7778 31.1306 28.7136 29.9292 28.7136 29.1154L36.2664 29.113C37.1284 29.113 37.8181 28.3473 37.7086 27.4926C37.4991 25.853 36.8262 24.7406 35.9317 23.8402V23.8402ZM33.3712 26.5392C31.8845 26.5368 30.677 26.5344 29.6971 26.5344C29.3516 26.5344 29.1494 26.1491 29.3359 25.859C29.9042 24.9947 30.7637 24.5601 31.5366 24.5601C32.3094 24.5601 33.1665 24.9934 33.7372 25.8614C33.9274 26.1515 33.7203 26.5392 33.3712 26.5392V26.5392Z" fill="#FF0084"/>
<path d="M45.9474 27.9802C45.1589 27.5131 44.0935 26.9978 42.8391 26.5392C42.3215 26.3502 41.1694 25.7242 41.9351 25.0717C42.1144 24.9188 42.3552 24.8502 42.5911 24.8394C43.2593 24.8069 43.8552 25.0524 44.4306 25.363C44.8941 25.6146 45.3973 25.9734 45.9474 25.9734C46.6998 25.9734 47.2187 25.4076 47.3318 24.843C47.4269 24.3675 47.2596 23.9305 47.0778 23.7126C46.6613 23.2154 45.0999 22.0176 42.8403 22.0176C40.2978 22.0176 38.3199 23.7126 38.3199 25.6905C38.3199 27.1026 39.0037 28.0042 39.7669 28.5219C40.8287 29.2418 41.9928 29.6451 42.8403 29.928C43.3315 30.0917 44.4258 30.2879 44.2669 31.0379C44.1453 31.6145 43.2978 31.623 42.8403 31.623C42.0928 31.623 41.3115 31.1655 40.6999 30.7767C40.3893 30.5792 40.1305 30.3276 39.7597 30.247C39.3601 30.1591 38.9303 30.2458 38.6028 30.4926C37.8998 31.0246 37.8637 32.0154 38.4295 32.6113C38.9953 33.2072 40.5145 34.4459 42.8415 34.4459C45.6669 34.4459 47.6448 32.7533 47.6448 30.7755C47.6448 29.6366 47.0188 28.6122 45.9498 27.979L45.9474 27.9802Z" fill="#FF0084"/>
<path d="M76.4934 36.8021C75.3838 36.8021 74.3144 36.6735 73.2852 36.4162C72.2721 36.1428 71.468 35.8051 70.873 35.4031L72.1274 32.7014C72.7224 33.0713 73.4219 33.3768 74.2259 33.6181C75.0461 33.8432 75.8501 33.9558 76.6381 33.9558C77.5065 33.9558 78.1176 33.8512 78.4713 33.6422C78.8412 33.4331 79.0261 33.1437 79.0261 32.7738C79.0261 32.4683 78.8814 32.2431 78.5919 32.0984C78.3186 31.9376 77.9487 31.817 77.4824 31.7366C77.016 31.6562 76.5014 31.5758 75.9386 31.4954C75.3918 31.415 74.837 31.3104 74.2742 31.1818C73.7113 31.0371 73.1968 30.828 72.7304 30.5546C72.2641 30.2812 71.8862 29.9114 71.5967 29.445C71.3233 28.9787 71.1866 28.3756 71.1866 27.6359C71.1866 26.8158 71.4198 26.0921 71.8862 25.465C72.3686 24.8378 73.0601 24.3473 73.9606 23.9936C74.8611 23.6237 75.9386 23.4388 77.1929 23.4388C78.0774 23.4388 78.9779 23.5352 79.8945 23.7282C80.8111 23.9212 81.575 24.2026 82.1861 24.5725L80.9317 27.25C80.3046 26.8801 79.6694 26.6308 79.0261 26.5022C78.399 26.3575 77.7879 26.2851 77.1929 26.2851C76.3567 26.2851 75.7456 26.3977 75.3597 26.6228C74.9737 26.8479 74.7807 27.1374 74.7807 27.4912C74.7807 27.8128 74.9174 28.054 75.1908 28.2148C75.4803 28.3756 75.8582 28.5043 76.3245 28.6008C76.7909 28.6973 77.2974 28.7857 77.8442 28.8661C78.407 28.9304 78.9698 29.035 79.5327 29.1797C80.0955 29.3244 80.6021 29.5335 81.0523 29.8069C81.5187 30.0641 81.8966 30.426 82.1861 30.8923C82.4755 31.3426 82.6202 31.9376 82.6202 32.6773C82.6202 33.4814 82.379 34.197 81.8966 34.8241C81.4142 35.4352 80.7146 35.9176 79.798 36.2714C78.8975 36.6252 77.7959 36.8021 76.4934 36.8021Z" fill="black"/>
<path d="M92.0388 23.4388C93.068 23.4388 93.9846 23.6478 94.7887 24.0659C95.6088 24.4679 96.2521 25.0951 96.7184 25.9474C97.1848 26.7836 97.4179 27.861 97.4179 29.1797V36.6091H93.655V29.7586C93.655 28.7133 93.4218 27.9415 92.9554 27.4429C92.5052 26.9444 91.8619 26.6952 91.0257 26.6952C90.4307 26.6952 89.892 26.8238 89.4096 27.0811C88.9432 27.3223 88.5734 27.7002 88.3 28.2148C88.0427 28.7294 87.914 29.3887 87.914 30.1928V36.6091H84.1511V18.7109H87.914V27.2258L87.0698 26.1404C87.5361 25.272 88.2035 24.6046 89.0719 24.1383C89.9402 23.6719 90.9292 23.4388 92.0388 23.4388Z" fill="black"/>
<path d="M106.307 36.8021C104.924 36.8021 103.694 36.5126 102.617 35.9337C101.555 35.3548 100.711 34.5668 100.084 33.5698C99.4729 32.5567 99.1674 31.4069 99.1674 30.1204C99.1674 28.8179 99.4729 27.6681 100.084 26.6711C100.711 25.6579 101.555 24.87 102.617 24.3071C103.694 23.7282 104.924 23.4388 106.307 23.4388C107.674 23.4388 108.896 23.7282 109.974 24.3071C111.051 24.87 111.895 25.6499 112.507 26.6469C113.118 27.644 113.423 28.8018 113.423 30.1204C113.423 31.4069 113.118 32.5567 112.507 33.5698C111.895 34.5668 111.051 35.3548 109.974 35.9337C108.896 36.5126 107.674 36.8021 106.307 36.8021ZM106.307 33.7145C106.934 33.7145 107.497 33.5698 107.996 33.2804C108.494 32.9909 108.888 32.5808 109.178 32.0502C109.467 31.5034 109.612 30.8602 109.612 30.1204C109.612 29.3646 109.467 28.7214 109.178 28.1907C108.888 27.66 108.494 27.25 107.996 26.9605C107.497 26.6711 106.934 26.5263 106.307 26.5263C105.68 26.5263 105.117 26.6711 104.619 26.9605C104.12 27.25 103.718 27.66 103.413 28.1907C103.123 28.7214 102.979 29.3646 102.979 30.1204C102.979 30.8602 103.123 31.5034 103.413 32.0502C103.718 32.5808 104.12 32.9909 104.619 33.2804C105.117 33.5698 105.68 33.7145 106.307 33.7145Z" fill="black"/>
<path d="M122.818 36.8021C121.725 36.8021 120.768 36.5609 119.948 36.0785C119.128 35.596 118.484 34.8643 118.018 33.8834C117.568 32.8864 117.343 31.632 117.343 30.1204C117.343 28.5927 117.56 27.3384 117.994 26.3575C118.428 25.3765 119.055 24.6448 119.875 24.1624C120.696 23.68 121.676 23.4388 122.818 23.4388C124.04 23.4388 125.134 23.7202 126.099 24.283C127.08 24.8298 127.852 25.6017 128.414 26.5987C128.993 27.5957 129.283 28.7696 129.283 30.1204C129.283 31.4873 128.993 32.6693 128.414 33.6663C127.852 34.6633 127.08 35.4352 126.099 35.982C125.134 36.5287 124.04 36.8021 122.818 36.8021ZM115.148 41.2887V23.6317H118.742V26.2851L118.669 30.1446L118.911 33.9799V41.2887H115.148ZM122.167 33.7145C122.794 33.7145 123.349 33.5698 123.831 33.2804C124.33 32.9909 124.724 32.5808 125.013 32.0502C125.319 31.5034 125.472 30.8602 125.472 30.1204C125.472 29.3646 125.319 28.7214 125.013 28.1907C124.724 27.66 124.33 27.25 123.831 26.9605C123.349 26.6711 122.794 26.5263 122.167 26.5263C121.54 26.5263 120.977 26.6711 120.478 26.9605C119.98 27.25 119.586 27.66 119.296 28.1907C119.007 28.7214 118.862 29.3646 118.862 30.1204C118.862 30.8602 119.007 31.5034 119.296 32.0502C119.586 32.5808 119.98 32.9909 120.478 33.2804C120.977 33.5698 121.54 33.7145 122.167 33.7145Z" fill="black"/>
<path d="M136.738 33.5L139.573 27.2H140.725L143.569 33.5H142.345L139.906 27.821H140.374L137.944 33.5H136.738ZM138.043 32.042L138.358 31.124H141.76L142.075 32.042H138.043ZM145.87 33.5V27.2H148.624C149.308 27.2 149.908 27.332 150.424 27.596C150.94 27.86 151.342 28.226 151.63 28.694C151.918 29.162 152.062 29.714 152.062 30.35C152.062 30.98 151.918 31.532 151.63 32.006C151.342 32.474 150.94 32.84 150.424 33.104C149.908 33.368 149.308 33.5 148.624 33.5H145.87ZM147.04 32.51H148.57C149.044 32.51 149.452 32.42 149.794 32.24C150.142 32.06 150.409 31.808 150.595 31.484C150.787 31.16 150.883 30.782 150.883 30.35C150.883 29.912 150.787 29.534 150.595 29.216C150.409 28.892 150.142 28.64 149.794 28.46C149.452 28.28 149.044 28.19 148.57 28.19H147.04V32.51ZM154.806 33.5V27.2H155.769L158.523 31.799H158.019L160.728 27.2H161.691L161.7 33.5H160.593L160.584 28.937H160.818L158.514 32.78H157.992L155.652 28.937H155.922V33.5H154.806ZM164.902 33.5V27.2H166.072V33.5H164.902ZM169.276 33.5V27.2H170.239L174.19 32.051H173.713V27.2H174.874V33.5H173.911L169.96 28.649H170.437V33.5H169.276Z" fill="black"/>
</svg>
