<svg width="32" height="33" viewBox="0 0 32 33" fill="none" xmlns="http://www.w3.org/2000/svg">
<path d="M14.2 25.73V6.77C14.2 4.97 13.44 4.25 11.52 4.25H6.68C4.76 4.25 4 4.97 4 6.77V25.73C4 27.53 4.76 28.25 6.68 28.25H11.52C13.44 28.25 14.2 27.53 14.2 25.73Z" stroke="#292D32" stroke-width="2" stroke-linecap="round" stroke-linejoin="round"/>
<path d="M27.9969 25.73V6.77C27.9969 4.97 27.2369 4.25 25.3169 4.25H20.4769C18.5702 4.25 17.7969 4.97 17.7969 6.77V25.73C17.7969 27.53 18.5569 28.25 20.4769 28.25H25.3169C27.2369 28.25 27.9969 27.53 27.9969 25.73Z" stroke="#292D32" stroke-width="2" stroke-linecap="round" stroke-linejoin="round"/>
</svg>
