<svg width="352" height="120" viewBox="0 0 352 120" fill="none" xmlns="http://www.w3.org/2000/svg">
<path d="M116.743 20.4119V89.6996C116.743 91.7918 115.356 93.6289 113.346 94.2067L24.4281 119.699C24.2139 119.762 23.9972 119.81 23.7781 119.848L30.8036 96.0775C31.3213 94.3247 32.8285 93.0342 34.6463 92.803L99.0681 84.4605C100.513 84.2775 101.591 83.0448 101.591 81.5882V29.8138C101.591 28.3451 100.481 27.1148 99.0224 26.9655L25.4658 19.3718C23.7709 19.1984 22.2974 20.5298 22.2974 22.2296V120C21.5751 120 20.8576 119.899 20.1666 119.699L3.38277 114.884C1.382 114.308 0 112.476 0 110.393V13.0781C0 11.2363 1.07141 9.56053 2.74233 8.78526L20.157 0.697923C21.551 0.0478538 23.1112 -0.15439 24.6232 0.117676L112.874 15.7964C115.113 16.1936 116.745 18.1414 116.745 20.4143L116.743 20.4119Z" fill="white"/>
<path d="M49.245 44.3565C48.7827 44.1422 48.294 44.0387 47.8172 44.0387C46.5412 44.0387 45.3181 44.761 44.7427 45.9985L39.9032 56.3732L35.0638 45.9985C34.4884 44.761 33.2653 44.0387 31.9893 44.0387C31.5077 44.0387 31.019 44.1398 30.5567 44.3565C28.8617 45.151 28.1298 47.1638 28.9195 48.8637L36.1593 64.3931L32.0952 73.1112C31.3007 74.8062 32.0374 76.8239 33.7324 77.6184C35.4322 78.4081 37.4498 77.6713 38.2395 75.9764L39.9008 72.4154L43.6423 64.3955L50.8822 48.8661C51.6719 47.1663 50.9352 45.1534 49.2402 44.3589L49.245 44.3565Z" fill="white"/>
<path d="M71.8635 47.6815C69.4438 45.2449 66.256 44.0363 63.0731 44.0363C59.8902 44.0363 56.7097 45.2497 54.2827 47.6815C51.5693 50.3949 50.3751 54.0545 50.6953 57.6034C50.9577 60.5721 52.3566 63.3963 54.5403 65.4837C56.7193 67.5639 59.6807 68.905 63.0731 68.905C66.947 68.905 69.8555 67.7734 72.6291 65.2646C73.0938 64.8433 74.3747 63.6828 74.3747 62.1226C74.3747 60.9597 73.5994 59.6788 72.1139 59.3538C70.6861 59.0408 69.2512 60.1435 68.2688 60.9934C66.8917 62.1828 64.248 62.9075 62.1919 62.6234C59.5555 62.2623 57.4271 59.8594 57.4271 58.2318L72.5328 58.227C74.2567 58.227 75.6363 56.6957 75.4172 54.9863C74.9983 51.7071 73.6524 49.4824 71.8635 47.6815V47.6815ZM66.7424 53.0794C63.7689 53.0746 61.354 53.0698 59.3942 53.0698C58.7032 53.0698 58.2987 52.2994 58.6719 51.7191C59.8083 49.9904 61.5274 49.1212 63.0731 49.1212C64.6188 49.1212 66.3331 49.988 67.4743 51.7239C67.8547 52.3042 67.4406 53.0794 66.7424 53.0794V53.0794Z" fill="white"/>
<path d="M91.8929 55.9614C90.3159 55.0272 88.1851 53.9968 85.6763 53.0794C84.641 52.7014 82.3369 51.4495 83.8681 50.1445C84.2269 49.8387 84.7084 49.7015 85.1803 49.6798C86.5166 49.6148 87.7084 50.106 88.8592 50.7272C89.7862 51.2304 90.7926 51.9478 91.8929 51.9478C93.3977 51.9478 94.4354 50.8162 94.6617 49.687C94.8519 48.736 94.5172 47.862 94.1537 47.4262C93.3206 46.4319 90.1979 44.0363 85.6787 44.0363C80.5937 44.0363 76.6379 47.4262 76.6379 51.382C76.6379 54.2062 78.0055 56.0096 79.5319 57.0449C81.6555 58.4846 83.9837 59.2912 85.6787 59.857C86.661 60.1845 88.8496 60.5769 88.5318 62.0769C88.2886 63.2301 86.5936 63.247 85.6787 63.247C84.1835 63.247 82.621 62.3321 81.3979 61.5544C80.7767 61.1596 80.2591 60.6564 79.5175 60.495C78.7182 60.3193 77.8586 60.4926 77.2037 60.9862C75.7977 62.0504 75.7254 64.0319 76.857 65.2237C77.9886 66.4155 81.0271 68.893 85.6811 68.893C91.3319 68.893 95.2877 65.5078 95.2877 61.552C95.2877 59.2744 94.0357 57.2254 91.8977 55.959L91.8929 55.9614Z" fill="white"/>
<path d="M152.987 73.6046C150.768 73.6046 148.629 73.3473 146.57 72.8327C144.544 72.2859 142.936 71.6105 141.746 70.8065L144.255 65.4032C145.445 66.143 146.844 66.7541 148.452 67.2365C150.092 67.6868 151.7 67.9119 153.276 67.9119C155.013 67.9119 156.235 67.7028 156.943 67.2847C157.682 66.8666 158.052 66.2877 158.052 65.548C158.052 64.9369 157.763 64.4866 157.184 64.1972C156.637 63.8755 155.897 63.6343 154.965 63.4735C154.032 63.3127 153.003 63.1519 151.877 62.9911C150.784 62.8303 149.674 62.6212 148.548 62.3639C147.423 62.0745 146.394 61.6564 145.461 61.1096C144.528 60.5629 143.772 59.8231 143.193 58.8904C142.647 57.9577 142.373 56.7516 142.373 55.2722C142.373 53.6319 142.84 52.1846 143.772 50.9303C144.737 49.676 146.12 48.695 147.921 47.9875C149.722 47.2478 151.877 46.8779 154.386 46.8779C156.155 46.8779 157.956 47.0709 159.789 47.4568C161.622 47.8428 163.15 48.4056 164.372 49.1453L161.863 54.5003C160.609 53.7606 159.339 53.2621 158.052 53.0048C156.798 52.7153 155.576 52.5706 154.386 52.5706C152.713 52.5706 151.491 52.7957 150.719 53.246C149.947 53.6963 149.561 54.2752 149.561 54.9827C149.561 55.626 149.835 56.1084 150.382 56.43C150.961 56.7516 151.716 57.0089 152.649 57.2019C153.582 57.3949 154.595 57.5718 155.688 57.7326C156.814 57.8612 157.94 58.0703 159.065 58.3597C160.191 58.6492 161.204 59.0673 162.105 59.6141C163.037 60.1287 163.793 60.8523 164.372 61.785C164.951 62.6855 165.24 63.8755 165.24 65.355C165.24 66.9631 164.758 68.3943 163.793 69.6486C162.828 70.8708 161.429 71.8357 159.596 72.5432C157.795 73.2508 155.592 73.6046 152.987 73.6046Z" fill="white"/>
<path d="M184.078 46.8779C186.136 46.8779 187.969 47.296 189.577 48.1322C191.218 48.9363 192.504 50.1906 193.437 51.8952C194.37 53.5676 194.836 55.7225 194.836 58.3597V73.2186H187.31V59.5176C187.31 57.427 186.844 55.8833 185.911 54.8862C185.01 53.8892 183.724 53.3907 182.051 53.3907C180.861 53.3907 179.784 53.648 178.819 54.1626C177.886 54.645 177.147 55.4008 176.6 56.43C176.085 57.4592 175.828 58.7779 175.828 60.386V73.2186H168.302V37.4222H175.828V54.4521L174.14 52.2811C175.072 50.5444 176.407 49.2096 178.144 48.2769C179.88 47.3442 181.858 46.8779 184.078 46.8779Z" fill="white"/>
<path d="M212.615 73.6046C209.849 73.6046 207.388 73.0257 205.233 71.8678C203.111 70.71 201.422 69.134 200.168 67.14C198.946 65.1138 198.335 62.8142 198.335 60.2412C198.335 57.6361 198.946 55.3365 200.168 53.3425C201.422 51.3163 203.111 49.7403 205.233 48.6146C207.388 47.4568 209.849 46.8779 212.615 46.8779C215.348 46.8779 217.793 47.4568 219.948 48.6146C222.102 49.7403 223.791 51.3002 225.013 53.2942C226.235 55.2883 226.846 57.6039 226.846 60.2412C226.846 62.8142 226.235 65.1138 225.013 67.14C223.791 69.134 222.102 70.71 219.948 71.8678C217.793 73.0257 215.348 73.6046 212.615 73.6046ZM212.615 67.4295C213.869 67.4295 214.995 67.14 215.992 66.5611C216.989 65.9822 217.777 65.162 218.356 64.1007C218.935 63.0072 219.224 61.7207 219.224 60.2412C219.224 58.7296 218.935 57.4431 218.356 56.3818C217.777 55.3204 216.989 54.5003 215.992 53.9214C214.995 53.3425 213.869 53.053 212.615 53.053C211.36 53.053 210.235 53.3425 209.238 53.9214C208.241 54.5003 207.437 55.3204 206.825 56.3818C206.247 57.4431 205.957 58.7296 205.957 60.2412C205.957 61.7207 206.247 63.0072 206.825 64.1007C207.437 65.162 208.241 65.9822 209.238 66.5611C210.235 67.14 211.36 67.4295 212.615 67.4295Z" fill="white"/>
<path d="M245.636 73.6046C243.449 73.6046 241.536 73.1221 239.895 72.1573C238.255 71.1924 236.969 69.729 236.036 67.7672C235.136 65.7731 234.685 63.2645 234.685 60.2412C234.685 57.1858 235.119 54.6772 235.988 52.7153C236.856 50.7534 238.11 49.29 239.751 48.3252C241.391 47.3603 243.353 46.8779 245.636 46.8779C248.081 46.8779 250.268 47.4407 252.197 48.5664C254.159 49.6599 255.703 51.2037 256.829 53.1977C257.987 55.1918 258.566 57.5396 258.566 60.2412C258.566 62.975 257.987 65.3389 256.829 67.333C255.703 69.327 254.159 70.8708 252.197 71.9643C250.268 73.0578 248.081 73.6046 245.636 73.6046ZM230.295 82.5778V47.2638H237.483V52.5706L237.339 60.2895L237.821 67.9601V82.5778H230.295ZM244.334 67.4295C245.588 67.4295 246.698 67.14 247.663 66.5611C248.66 65.9822 249.448 65.162 250.027 64.1007C250.638 63.0072 250.943 61.7207 250.943 60.2412C250.943 58.7296 250.638 57.4431 250.027 56.3818C249.448 55.3204 248.66 54.5003 247.663 53.9214C246.698 53.3425 245.588 53.053 244.334 53.053C243.08 53.053 241.954 53.3425 240.957 53.9214C239.96 54.5003 239.172 55.3204 238.593 56.3818C238.014 57.4431 237.725 58.7296 237.725 60.2412C237.725 61.7207 238.014 63.0072 238.593 64.1007C239.172 65.162 239.96 65.9822 240.957 66.5611C241.954 67.14 243.08 67.4295 244.334 67.4295Z" fill="white"/>
<path d="M273.476 66L279.146 53.4H281.45L287.138 66H284.69L279.812 54.642H280.748L275.888 66H273.476ZM276.086 63.084L276.716 61.248H283.52L284.15 63.084H276.086ZM291.741 66V53.4H297.249C298.617 53.4 299.817 53.664 300.849 54.192C301.881 54.72 302.685 55.452 303.261 56.388C303.837 57.324 304.125 58.428 304.125 59.7C304.125 60.96 303.837 62.064 303.261 63.012C302.685 63.948 301.881 64.68 300.849 65.208C299.817 65.736 298.617 66 297.249 66H291.741ZM294.081 64.02H297.141C298.089 64.02 298.905 63.84 299.589 63.48C300.285 63.12 300.819 62.616 301.191 61.968C301.575 61.32 301.767 60.564 301.767 59.7C301.767 58.824 301.575 58.068 301.191 57.432C300.819 56.784 300.285 56.28 299.589 55.92C298.905 55.56 298.089 55.38 297.141 55.38H294.081V64.02ZM309.612 66V53.4H311.538L317.046 62.598H316.038L321.456 53.4H323.382L323.4 66H321.186L321.168 56.874H321.636L317.028 64.56H315.984L311.304 56.874H311.844V66H309.612ZM329.803 66V53.4H332.143V66H329.803ZM338.551 66V53.4H340.477L348.379 63.102H347.425V53.4H349.747V66H347.821L339.919 56.298H340.873V66H338.551Z" fill="white"/>
</svg>
